<svg width="24" height="25" viewBox="0 0 24 25" fill="none" xmlns="http://www.w3.org/2000/svg">
<mask id="mask0_4214_6621" style="mask-type:alpha" maskUnits="userSpaceOnUse" x="0" y="0" width="24" height="25">
<rect y="0.5" width="24" height="24" fill="#D9D9D9"/>
</mask>
<g mask="url(#mask0_4214_6621)">
<path d="M1 21.5V16.5H3V19.5H6V21.5H1ZM18 21.5V19.5H21V16.5H23V21.5H18ZM4 18.5V6.5H6V18.5H4ZM7 18.5V6.5H8V18.5H7ZM10 18.5V6.5H12V18.5H10ZM13 18.5V6.5H16V18.5H13ZM17 18.5V6.5H18V18.5H17ZM19 18.5V6.5H20V18.5H19ZM1 8.5V3.5H6V5.5H3V8.5H1ZM21 8.5V5.5H18V3.5H23V8.5H21Z" fill="#3454B4"/>
</g>
</svg>
