<svg width="52" height="52" viewBox="0 0 52 52" fill="none" xmlns="http://www.w3.org/2000/svg">
<g clip-path="url(#clip0_6262_12189)">
<path d="M21.9961 27.252H0V35.0478H21.9961V27.252Z" fill="#84B740"/>
<path d="M21.9961 16.6144H0V24.4172H21.9961V16.6144Z" fill="#259BD6"/>
<path d="M43.991 33.4633L43.893 33.4842C43.5534 33.5537 43.4293 33.5814 43.1811 33.5814C42.6063 33.5814 41.9271 33.2688 41.9271 31.7958C41.9271 31.0384 42.0446 30.0309 43.1157 30.0309H43.1223C43.3051 30.0448 43.5141 30.0657 43.9059 30.1907L43.9909 30.2185L43.991 33.4633ZM44.1673 26.1191L43.991 26.1539V28.8775L43.8343 28.8288L43.7885 28.8149C43.6122 28.7594 43.2073 28.6344 42.8155 28.6344C40.6733 28.6344 40.2227 30.3576 40.2227 31.8027C40.2227 33.7829 41.2676 34.9224 43.0898 34.9224C43.8604 34.9224 44.4286 34.8391 45.0034 34.6376C45.5324 34.457 45.7218 34.1998 45.7218 33.6509V25.8342C45.2123 25.9315 44.6833 26.0287 44.1673 26.1191Z" fill="white"/>
<path d="M50.3617 33.5118L50.2703 33.5396L49.9438 33.6299C49.6369 33.7133 49.3625 33.762 49.1535 33.762C48.6506 33.762 48.3502 33.4979 48.3502 33.0463C48.3502 32.7545 48.4743 32.2612 49.2971 32.2612H50.3616V33.5118H50.3617ZM49.6106 28.5994C48.9511 28.5994 48.2718 28.7244 47.4293 29.0023L46.8807 29.1761L47.0636 30.4961L47.5992 30.3085C48.1609 30.1139 48.8597 29.9889 49.3822 29.9889C49.6173 29.9889 50.3357 29.9889 50.3357 30.8158V31.1771H49.3365C47.5144 31.1771 46.6719 31.7955 46.6719 33.1226C46.6719 34.2551 47.4491 34.936 48.7552 34.936C49.1601 34.936 49.7218 34.8526 50.2051 34.7275L50.2312 34.7205L50.2573 34.7275L50.4206 34.7553C50.9299 34.8525 51.4589 34.9499 51.9749 35.054V30.7183C51.9749 29.315 51.1781 28.5994 49.6106 28.5994Z" fill="white"/>
<path d="M37.6703 33.5118L37.5789 33.5396L37.2524 33.6299C36.9455 33.7133 36.6776 33.762 36.4621 33.762C35.9592 33.762 35.6588 33.4979 35.6588 33.0463C35.6588 32.7545 35.7829 32.2612 36.5993 32.2612H37.6637V33.5118H37.6703ZM36.9258 28.5994C36.2597 28.5994 35.587 28.7244 34.7445 29.0023L34.1959 29.1761L34.3787 30.4961L34.9143 30.3085C35.476 30.1139 36.1747 29.9889 36.6973 29.9889C36.9324 29.9889 37.6508 29.9889 37.6508 30.8158V31.1771H36.6516C34.8294 31.1771 33.9805 31.7955 33.9805 33.1226C33.9805 34.2551 34.7577 34.936 36.0704 34.936C36.4753 34.936 37.037 34.8526 37.5202 34.7275L37.5463 34.7205L37.5725 34.7275L37.7292 34.7553C38.2451 34.8525 38.7675 34.9499 39.2835 35.061V30.7253C39.2901 29.3081 38.4933 28.5994 36.9258 28.5994Z" fill="white"/>
<path d="M30.7939 28.6138C29.9645 28.6138 29.2788 28.9057 29.0241 29.0307L28.9588 29.0655L28.9 29.0168C28.5473 28.7459 28.0314 28.6068 27.313 28.6068C26.6795 28.6068 26.0852 28.7041 25.4386 28.9055C24.8835 29.0861 24.668 29.3711 24.668 29.9061V34.8602H26.4052V30.2813L26.4901 30.2535C26.8428 30.1285 27.0518 30.1076 27.2543 30.1076C27.7572 30.1076 28.0119 30.3925 28.0119 30.9484V34.8671H29.723V30.8719C29.723 30.6356 29.6772 30.4967 29.6708 30.4689L29.6119 30.3508L29.7295 30.2952C29.9907 30.1702 30.2781 30.1076 30.5784 30.1076C30.9245 30.1076 31.336 30.2535 31.336 30.9484V34.8671H33.0405V30.7678C33.0405 29.3155 32.3091 28.6138 30.7939 28.6138Z" fill="white"/>
<path d="M49.0793 21.7004C48.8246 21.7004 48.4001 21.6726 48.0671 21.6031L47.9691 21.5822V18.9071C47.9691 18.6848 47.9299 18.5458 47.9233 18.5249L47.8711 18.4138L47.9821 18.3651C48.0083 18.3512 48.0344 18.3442 48.0671 18.3303L48.0867 18.3164C48.1259 18.3025 48.1651 18.2887 48.2042 18.2748C48.2239 18.2678 48.2369 18.2609 48.25 18.2609C48.6354 18.1497 48.988 18.1636 49.1447 18.1497H49.1513C50.2158 18.1497 50.3399 19.1572 50.3399 19.9146C50.3333 21.3878 49.6475 21.7004 49.0793 21.7004ZM49.0728 16.6144C49.0598 16.6144 49.0401 16.6144 49.0271 16.6144C48.0279 16.6144 47.0025 16.9062 46.6367 17.4759C46.4408 17.7539 46.3298 18.1013 46.3232 18.5112V21.2696C46.3232 21.5059 46.2775 21.5961 46.271 21.617L46.2122 21.7352H43.0578V19.8175H43.0512C43.012 17.7956 41.8887 16.6838 40.2626 16.6838H40.0732H38.6755C38.6103 17.1772 38.558 17.5246 38.4927 18.0179H40.0732C40.9026 18.0179 41.3402 18.7683 41.3402 19.9217V21.8533L41.2292 21.7907C41.2095 21.7837 41.0725 21.7352 40.8569 21.7352H38.1269C38.0747 22.1034 38.0094 22.5828 37.9375 23.0623H46.3297C46.6171 22.9997 46.9501 22.9441 47.2375 22.8956C47.6621 23.118 48.4522 23.236 48.9943 23.236C50.8164 23.236 51.9986 21.9367 51.9986 19.9356C51.9921 17.9554 50.8493 16.6561 49.0728 16.6144Z" fill="white"/>
<path d="M34.3601 23.8758H34.4384C36.2606 23.8758 37.1095 23.2365 37.1095 21.6594C37.1095 20.5268 36.3323 19.6236 35.0262 19.6236H33.3478C32.8449 19.6236 32.5445 19.3178 32.5445 18.8037C32.5445 18.4563 32.6686 18.0255 33.4914 18.0255H37.1618C37.2401 17.5183 37.2793 17.1986 37.3512 16.6914H33.5371C31.7607 16.6914 30.8659 17.4835 30.8659 18.8037C30.8659 20.1099 31.6432 20.7908 32.9493 20.7908H34.6277C35.1306 20.7908 35.431 21.2147 35.431 21.6594C35.431 21.9512 35.3069 22.5557 34.4905 22.5557H34.2097L28.8347 22.5418H27.8551C27.0256 22.5418 26.4444 22.0416 26.4444 20.8812V20.0821C26.4444 18.8732 26.895 18.1228 27.8551 18.1228H29.4485C29.5204 17.6086 29.5661 17.282 29.6315 16.7957H27.646H27.4566C25.8304 16.7957 24.7071 17.9561 24.668 19.9779V20.0543V20.8812C24.7071 22.9031 25.8304 23.8689 27.4566 23.8689H27.646H29.0436L31.9564 23.8759H33.6937L34.3601 23.8758Z" fill="white"/>
</g>
<defs>
<clipPath id="clip0_6262_12189">
<rect width="52" height="52" fill="white"/>
</clipPath>
</defs>
</svg>
