<svg width="52" height="52" viewBox="0 0 52 52" fill="none" xmlns="http://www.w3.org/2000/svg">
<path d="M20.4414 16.7566H31.5647V34.5748H20.4414V16.7566Z" fill="#FF5F00"/>
<path d="M21.588 25.6673C21.5867 23.9516 21.9832 22.258 22.7477 20.7148C23.5122 19.1716 24.6246 17.8191 26.0007 16.7598C24.2964 15.4461 22.2495 14.6292 20.0941 14.4024C17.9387 14.1756 15.7618 14.5482 13.8121 15.4775C11.8624 16.4067 10.2186 17.8553 9.06851 19.6574C7.91847 21.4596 7.30859 23.5428 7.30859 25.6689C7.30859 27.7949 7.91847 29.8781 9.06851 31.6803C10.2186 33.4825 11.8624 34.931 13.8121 35.8603C15.7618 36.7896 17.9387 37.1621 20.0941 36.9353C22.2495 36.7086 24.2964 35.8917 26.0007 34.5779C24.6242 33.5183 23.5115 32.1653 22.747 30.6215C21.9825 29.0777 21.5862 27.3835 21.588 25.6673V25.6673Z" fill="#EB001B"/>
<path d="M43.5886 32.6894V32.3243H43.7491V32.2488H43.3672V32.3243H43.518V32.6895L43.5886 32.6894ZM44.3299 32.6894V32.2488H44.2144L44.0796 32.5635L43.9448 32.2488H43.8293V32.6894H43.9127V32.3558L44.0379 32.6423H44.1245L44.2497 32.3558V32.6894H44.3299Z" fill="#F79E1B"/>
<path d="M44.6939 25.6673C44.6938 27.7935 44.0838 29.8768 42.9336 31.6791C41.7833 33.4813 40.1393 34.9298 38.1893 35.859C36.2393 36.7881 34.0622 37.1604 31.9066 36.9333C29.7511 36.7062 27.7043 35.8889 26 34.5748C27.3756 33.5145 28.4877 32.1617 29.2524 30.6184C30.0171 29.0751 30.4144 27.3816 30.4144 25.6657C30.4144 23.9498 30.0171 22.2563 29.2524 20.713C28.4877 19.1697 27.3756 17.8169 26 16.7566C27.7043 15.4425 29.7511 14.6252 31.9067 14.3981C34.0622 14.171 36.2394 14.5433 38.1893 15.4724C40.1393 16.4016 41.7834 17.8501 42.9336 19.6523C44.0838 21.4546 44.6939 23.5379 44.6939 25.6641V25.6673Z" fill="#F79E1B"/>
</svg>
