<svg width="55" height="37" viewBox="0 0 55 37" fill="none" xmlns="http://www.w3.org/2000/svg">
<path d="M39.0937 2L39.9597 1.5L39.0937 -2.38419e-07L38.2276 1.5L39.0937 2ZM52.2903 24.8573V25.8573H54.0224L53.1563 24.3573L52.2903 24.8573ZM25.897 24.8573L25.031 24.3573L24.1649 25.8573H25.897V24.8573ZM38.2276 2.5L51.4243 25.3573L53.1563 24.3573L39.9597 1.5L38.2276 2.5ZM26.763 25.3573L39.9597 2.5L38.2276 1.5L25.031 24.3573L26.763 25.3573ZM52.2903 23.8573H25.897V25.8573H52.2903V23.8573ZM22.8573 24.5588C22.8573 30.3184 18.1882 34.9874 12.4286 34.9874V36.9874C19.2928 36.9874 24.8573 31.423 24.8573 24.5588H22.8573ZM12.4286 14.1302C18.1882 14.1302 22.8573 18.7992 22.8573 24.5588H24.8573C24.8573 17.6947 19.2928 12.1302 12.4286 12.1302V14.1302ZM2 24.5588C2 18.7992 6.66906 14.1302 12.4286 14.1302V12.1302C5.56449 12.1302 0 17.6947 0 24.5588H2ZM12.4286 34.9874C6.66906 34.9874 2 30.3184 2 24.5588H0C0 31.423 5.56449 36.9874 12.4286 36.9874V34.9874Z" fill="#AAAAAA"/>
</svg>
