<svg width="24" height="25" viewBox="0 0 24 25" fill="none" xmlns="http://www.w3.org/2000/svg">
<mask id="mask0_4214_6648" style="mask-type:alpha" maskUnits="userSpaceOnUse" x="0" y="0" width="24" height="25">
<rect y="0.5" width="24" height="24" fill="#D9D9D9"/>
</mask>
<g mask="url(#mask0_4214_6648)">
<path d="M5.99967 21.5C4.99967 21.5 4.20383 21.1125 3.61217 20.3375C3.0205 19.5625 2.84967 18.7 3.09967 17.75L4.89967 10.95C4.34967 10.6 3.8955 10.125 3.53717 9.525C3.17883 8.925 2.99967 8.25 2.99967 7.5C2.99967 6.4 3.39133 5.45833 4.17467 4.675C4.958 3.89167 5.89967 3.5 6.99967 3.5H14.9997C15.7497 3.5 16.3163 3.81667 16.6997 4.45C17.083 5.08333 17.108 5.73333 16.7747 6.4L14.7747 10.4C14.5913 10.7333 14.3455 11 14.0372 11.2C13.7288 11.4 13.383 11.5 12.9997 11.5H10.9747L10.6997 12.5H10.9997C11.283 12.5 11.5205 12.5958 11.7122 12.7875C11.9038 12.9792 11.9997 13.2167 11.9997 13.5V15.5C11.9997 15.7833 11.9038 16.0208 11.7122 16.2125C11.5205 16.4042 11.283 16.5 10.9997 16.5H9.64967L8.89967 19.3C8.71633 19.95 8.358 20.4792 7.82467 20.8875C7.29133 21.2958 6.683 21.5 5.99967 21.5ZM5.99967 19.5C6.233 19.5 6.433 19.4333 6.59967 19.3C6.76633 19.1667 6.883 18.9917 6.94967 18.775L8.89967 11.5H6.82467L5.02467 18.25C4.94133 18.5667 4.99967 18.8542 5.19967 19.1125C5.39967 19.3708 5.66633 19.5 5.99967 19.5ZM6.99967 9.5H12.9997L14.9997 5.5H6.99967C6.44967 5.5 5.97883 5.69583 5.58717 6.0875C5.1955 6.47917 4.99967 6.95 4.99967 7.5C4.99967 8.05 5.1955 8.52083 5.58717 8.9125C5.97883 9.30417 6.44967 9.5 6.99967 9.5ZM18.9997 5.5L18.3747 4.15L21.9997 2.5L22.5997 3.875L18.9997 5.5ZM21.9997 12.5L18.3747 10.875L18.9997 9.5L22.5997 11.15L21.9997 12.5ZM18.9997 8.25V6.75H22.9997V8.25H18.9997Z" fill="#3454B4"/>
</g>
</svg>
