<svg width="20" height="16" viewBox="0 0 20 16" fill="none" xmlns="http://www.w3.org/2000/svg">
<path d="M13.3346 1.3898C14.5694 2.00343 15.418 3.27762 15.418 4.75C15.418 6.22238 14.5694 7.49657 13.3346 8.1102M15.0013 12.472C16.2609 13.0419 17.3951 13.9708 18.3346 15.1667M1.66797 15.1667C3.29004 13.1021 5.49229 11.8333 7.91797 11.8333C10.3437 11.8333 12.5459 13.1021 14.168 15.1667M11.668 4.75C11.668 6.82107 9.98904 8.5 7.91797 8.5C5.8469 8.5 4.16797 6.82107 4.16797 4.75C4.16797 2.67893 5.8469 1 7.91797 1C9.98904 1 11.668 2.67893 11.668 4.75Z" stroke="#70737A" stroke-width="1.5" stroke-linecap="round" stroke-linejoin="round"/>
</svg>
