<svg width="52" height="52" viewBox="0 0 52 52" fill="none" xmlns="http://www.w3.org/2000/svg">
<mask id="mask0_6262_1132" style="mask-type:luminance" maskUnits="userSpaceOnUse" x="0" y="35" width="52" height="4">
<path d="M0.230469 35.0255H52.0003V38.8771H0.230469V35.0255Z" fill="white"/>
</mask>
<g mask="url(#mask0_6262_1132)">
<path d="M0.230469 38.8766H52.0003V35.028H0.230469V38.8766Z" fill="#F3B500"/>
</g>
<mask id="mask1_6262_1132" style="mask-type:luminance" maskUnits="userSpaceOnUse" x="0" y="12" width="52" height="5">
<path d="M0.230469 12.1411H52.0003V16.0089H0.230469V12.1411Z" fill="white"/>
</mask>
<g mask="url(#mask1_6262_1132)">
<path d="M0.230469 15.9895H52.0003V12.1405H0.230469V15.9895Z" fill="#2B2963"/>
</g>
<path d="M25.6687 20.2303L22.9399 30.81H19.6397L22.3687 20.2303H25.6687ZM39.5542 27.0617L41.292 23.0885L42.2911 27.0617H39.5542ZM43.2381 30.81H46.2902L43.624 20.2303H40.8086C40.174 20.2303 39.6397 20.5356 39.4023 21.0063L34.4504 30.81H37.9167L38.6044 29.2298H42.8385L43.2381 30.81ZM34.6219 27.3558C34.6368 24.564 29.9681 24.4089 29.9989 23.1618C30.0087 22.7825 30.4447 22.3787 31.3983 22.2758C31.8709 22.2251 33.1752 22.1842 34.6537 22.7488L35.2321 20.5048C34.4375 20.2665 33.4161 20.0369 32.1448 20.0369C28.882 20.0369 26.5867 21.4743 26.5681 23.534C26.547 25.0572 28.2077 25.9063 29.4561 26.4133C30.7437 26.9323 31.1749 27.2648 31.1684 27.7279C31.159 28.4377 30.1414 28.752 29.1942 28.7638C27.5341 28.7852 26.5725 28.392 25.8049 28.0951L25.2062 30.4147C25.978 30.7079 27.4016 30.9627 28.8749 30.9761C32.3441 30.9761 34.6122 29.5554 34.6219 27.3558ZM20.9529 20.2303L15.605 30.81H12.1168L9.48442 22.3664C9.32542 21.8474 9.18601 21.6564 8.70086 21.4374C7.90695 21.0797 6.59725 20.7454 5.44531 20.5374L5.52316 20.2303H11.1393C11.8541 20.2303 12.4983 20.6253 12.6623 21.3083L14.0527 27.4309L17.4853 20.2303" fill="#2B2963"/>
</svg>
