<svg width="18" height="20" viewBox="0 0 18 20" fill="none" xmlns="http://www.w3.org/2000/svg">
<path d="M16.167 8.33332H1.16699M12.0003 1.66666V4.99999M5.33366 1.66666V4.99999M5.16699 18.3333H12.167C13.5671 18.3333 14.2672 18.3333 14.802 18.0608C15.2724 17.8212 15.6548 17.4387 15.8945 16.9683C16.167 16.4335 16.167 15.7335 16.167 14.3333V7.33332C16.167 5.93319 16.167 5.23313 15.8945 4.69835C15.6548 4.22794 15.2724 3.84549 14.802 3.60581C14.2672 3.33332 13.5671 3.33332 12.167 3.33332H5.16699C3.76686 3.33332 3.0668 3.33332 2.53202 3.60581C2.06161 3.84549 1.67916 4.22794 1.43948 4.69835C1.16699 5.23313 1.16699 5.93319 1.16699 7.33332V14.3333C1.16699 15.7335 1.16699 16.4335 1.43948 16.9683C1.67916 17.4387 2.06161 17.8212 2.53202 18.0608C3.0668 18.3333 3.76686 18.3333 5.16699 18.3333Z" stroke="#70737A" stroke-width="2" stroke-linecap="round" stroke-linejoin="round"/>
</svg>
