<svg width="20" height="20" viewBox="0 0 20 20" fill="none" xmlns="http://www.w3.org/2000/svg">
<g clip-path="url(#clip0_4264_23052)">
<path d="M10.0013 5.00008V18.3334M10.0013 5.00008H7.05487C6.62074 5.00008 6.20439 4.82449 5.89741 4.51193C5.59043 4.19937 5.41797 3.77544 5.41797 3.33341C5.41797 2.89139 5.59043 2.46746 5.89741 2.1549C6.20439 1.84234 6.62074 1.66675 7.05487 1.66675C9.34654 1.66675 10.0013 5.00008 10.0013 5.00008ZM10.0013 5.00008H12.9477C13.3819 5.00008 13.7982 4.82449 14.1052 4.51193C14.4122 4.19937 14.5846 3.77544 14.5846 3.33341C14.5846 2.89139 14.4122 2.46746 14.1052 2.1549C13.7982 1.84234 13.3819 1.66675 12.9477 1.66675C10.6561 1.66675 10.0013 5.00008 10.0013 5.00008ZM16.668 9.16675V15.6667C16.668 16.6002 16.668 17.0669 16.4863 17.4234C16.3265 17.737 16.0716 17.992 15.758 18.1518C15.4014 18.3334 14.9347 18.3334 14.0013 18.3334L6.0013 18.3334C5.06788 18.3334 4.60117 18.3334 4.24465 18.1518C3.93105 17.992 3.67608 17.737 3.51629 17.4234C3.33464 17.0669 3.33464 16.6002 3.33464 15.6667V9.16675M1.66797 6.33341L1.66797 7.83341C1.66797 8.30013 1.66797 8.53348 1.7588 8.71174C1.83869 8.86854 1.96617 8.99603 2.12298 9.07592C2.30124 9.16675 2.53459 9.16675 3.0013 9.16675L17.0013 9.16675C17.468 9.16675 17.7014 9.16675 17.8796 9.07592C18.0364 8.99603 18.1639 8.86854 18.2438 8.71174C18.3346 8.53348 18.3346 8.30013 18.3346 7.83342V6.33342C18.3346 5.8667 18.3346 5.63335 18.2438 5.45509C18.1639 5.29829 18.0364 5.1708 17.8796 5.09091C17.7014 5.00008 17.468 5.00008 17.0013 5.00008L3.0013 5.00008C2.53459 5.00008 2.30124 5.00008 2.12298 5.09091C1.96618 5.1708 1.83869 5.29829 1.7588 5.45509C1.66797 5.63335 1.66797 5.8667 1.66797 6.33341Z" stroke="#70737A" stroke-width="2" stroke-linecap="round" stroke-linejoin="round"/>
</g>
<defs>
<clipPath id="clip0_4264_23052">
<rect width="20" height="20" fill="white"/>
</clipPath>
</defs>
</svg>
