<svg width="20" height="20" viewBox="0 0 20 20" fill="none" xmlns="http://www.w3.org/2000/svg">
<g clip-path="url(#clip0_6305_3407)">
<path d="M14.9974 5.83329V4.33329C14.9974 3.39987 14.9974 2.93316 14.8157 2.57664C14.656 2.26304 14.401 2.00807 14.0874 1.84828C13.7309 1.66663 13.2642 1.66663 12.3307 1.66663H7.66406C6.73064 1.66663 6.26393 1.66663 5.90741 1.84828C5.59381 2.00807 5.33884 2.26304 5.17905 2.57664C4.9974 2.93316 4.9974 3.39987 4.9974 4.33329V5.83329M4.9974 15C4.22242 15 3.83493 15 3.51702 14.9148C2.65428 14.6836 1.98042 14.0097 1.74925 13.147C1.66406 12.8291 1.66406 12.4416 1.66406 11.6666V9.83329C1.66406 8.43316 1.66406 7.7331 1.93655 7.19832C2.17623 6.72791 2.55868 6.34546 3.02909 6.10578C3.56387 5.83329 4.26393 5.83329 5.66406 5.83329H14.3307C15.7309 5.83329 16.4309 5.83329 16.9657 6.10578C17.4361 6.34546 17.8186 6.72791 18.0582 7.19832C18.3307 7.7331 18.3307 8.43316 18.3307 9.83329V11.6666C18.3307 12.4416 18.3307 12.8291 18.2455 13.147C18.0144 14.0097 17.3405 14.6836 16.4778 14.9148C16.1599 15 15.7724 15 14.9974 15M12.4974 8.74996H14.9974M7.66406 18.3333H12.3307C13.2642 18.3333 13.7309 18.3333 14.0874 18.1516C14.401 17.9918 14.656 17.7369 14.8157 17.4233C14.9974 17.0668 14.9974 16.6 14.9974 15.6666V14.3333C14.9974 13.3999 14.9974 12.9332 14.8157 12.5766C14.656 12.263 14.401 12.0081 14.0874 11.8483C13.7309 11.6666 13.2642 11.6666 12.3307 11.6666H7.66406C6.73064 11.6666 6.26393 11.6666 5.90741 11.8483C5.59381 12.0081 5.33884 12.263 5.17905 12.5766C4.9974 12.9332 4.9974 13.3999 4.9974 14.3333V15.6666C4.9974 16.6 4.9974 17.0668 5.17905 17.4233C5.33884 17.7369 5.59381 17.9918 5.90741 18.1516C6.26393 18.3333 6.73064 18.3333 7.66406 18.3333Z" stroke="#434549" stroke-width="1.5" stroke-linecap="round" stroke-linejoin="round"/>
</g>
<defs>
<clipPath id="clip0_6305_3407">
<rect width="20" height="20" fill="white"/>
</clipPath>
</defs>
</svg>
