<svg width="20" height="20" viewBox="0 0 20 20" fill="none" xmlns="http://www.w3.org/2000/svg">
<g clip-path="url(#clip0_4264_23213)">
<path d="M6.66797 6.66675H6.6763M3.80359 2.4478L2.44902 3.80237C2.16076 4.09062 2.01664 4.23475 1.91357 4.40294C1.82219 4.55206 1.75485 4.71463 1.71402 4.88469C1.66797 5.07651 1.66797 5.28033 1.66797 5.68798L1.66797 8.06218C1.66797 8.46983 1.66797 8.67365 1.71402 8.86547C1.75485 9.03553 1.82219 9.1981 1.91357 9.34722C2.01664 9.51542 2.16076 9.65954 2.44902 9.94779L8.83954 16.3383C9.82958 17.3284 10.3246 17.8234 10.8954 18.0089C11.3975 18.172 11.9384 18.172 12.4405 18.0089C13.0113 17.8234 13.5064 17.3284 14.4964 16.3383L16.3395 14.4952C17.3296 13.5051 17.8246 13.0101 18.0101 12.4393C18.1732 11.9372 18.1732 11.3963 18.0101 10.8942C17.8246 10.3234 17.3296 9.82836 16.3395 8.83832L9.94902 2.4478C9.66076 2.15954 9.51664 2.01542 9.34844 1.91235C9.19932 1.82097 9.03675 1.75363 8.86669 1.7128C8.67487 1.66675 8.47105 1.66675 8.0634 1.66675L5.68921 1.66675C5.28155 1.66675 5.07773 1.66675 4.88592 1.7128C4.71586 1.75363 4.55328 1.82097 4.40416 1.91235C4.23597 2.01542 4.09184 2.15954 3.80359 2.4478ZM7.08464 6.66675C7.08464 6.89687 6.89809 7.08341 6.66797 7.08341C6.43785 7.08341 6.2513 6.89687 6.2513 6.66675C6.2513 6.43663 6.43785 6.25008 6.66797 6.25008C6.89809 6.25008 7.08464 6.43663 7.08464 6.66675Z" stroke="#70737A" stroke-width="2" stroke-linecap="round" stroke-linejoin="round"/>
</g>
<defs>
<clipPath id="clip0_4264_23213">
<rect width="20" height="20" fill="white"/>
</clipPath>
</defs>
</svg>
