<svg width="74" height="74" viewBox="0 0 74 74" fill="none" xmlns="http://www.w3.org/2000/svg">
<mask id="path-1-outside-1_1_1577" maskUnits="userSpaceOnUse" x="1.52588e-05" y="0" width="74" height="74" fill="black">
<rect fill="white" x="1.52588e-05" width="74" height="74"/>
<path d="M72.8396 40.3948C72.1819 47.3379 69.5216 53.9405 65.1821 59.4001C60.8425 64.8598 55.0105 68.9414 48.3949 71.1489C41.7793 73.3564 34.6649 73.5947 27.9163 71.835C21.1678 70.0752 15.0757 66.3931 10.3804 61.2362C5.6852 56.0792 2.58896 49.6695 1.46804 42.786C0.347115 35.9025 1.24977 28.8415 4.0663 22.4614C6.88282 16.0812 11.492 10.6565 17.3335 6.84657C23.1751 3.03662 29.9975 1.00549 36.9717 1.00001L36.983 15.4C32.7985 15.4033 28.705 16.6219 25.2001 18.9079C21.6952 21.1939 18.9297 24.4487 17.2398 28.2768C15.5499 32.1049 15.0083 36.3414 15.6808 40.4716C16.3534 44.6017 18.2111 48.4475 21.0283 51.5417C23.8454 54.6358 27.5007 56.8451 31.5498 57.901C35.5989 58.9568 39.8676 58.8138 43.8369 57.4893C47.8063 56.1648 51.3055 53.7158 53.9092 50.44C56.513 47.1643 58.1091 43.2027 58.5037 39.0368L72.8396 40.3948Z"/>
</mask>
<path d="M72.8396 40.3948C72.1819 47.3379 69.5216 53.9405 65.1821 59.4001C60.8425 64.8598 55.0105 68.9414 48.3949 71.1489C41.7793 73.3564 34.6649 73.5947 27.9163 71.835C21.1678 70.0752 15.0757 66.3931 10.3804 61.2362C5.6852 56.0792 2.58896 49.6695 1.46804 42.786C0.347115 35.9025 1.24977 28.8415 4.0663 22.4614C6.88282 16.0812 11.492 10.6565 17.3335 6.84657C23.1751 3.03662 29.9975 1.00549 36.9717 1.00001L36.983 15.4C32.7985 15.4033 28.705 16.6219 25.2001 18.9079C21.6952 21.1939 18.9297 24.4487 17.2398 28.2768C15.5499 32.1049 15.0083 36.3414 15.6808 40.4716C16.3534 44.6017 18.2111 48.4475 21.0283 51.5417C23.8454 54.6358 27.5007 56.8451 31.5498 57.901C35.5989 58.9568 39.8676 58.8138 43.8369 57.4893C47.8063 56.1648 51.3055 53.7158 53.9092 50.44C56.513 47.1643 58.1091 43.2027 58.5037 39.0368L72.8396 40.3948Z" fill="#3454B4"/>
<path d="M72.8396 40.3948C72.1819 47.3379 69.5216 53.9405 65.1821 59.4001C60.8425 64.8598 55.0105 68.9414 48.3949 71.1489C41.7793 73.3564 34.6649 73.5947 27.9163 71.835C21.1678 70.0752 15.0757 66.3931 10.3804 61.2362C5.6852 56.0792 2.58896 49.6695 1.46804 42.786C0.347115 35.9025 1.24977 28.8415 4.0663 22.4614C6.88282 16.0812 11.492 10.6565 17.3335 6.84657C23.1751 3.03662 29.9975 1.00549 36.9717 1.00001L36.983 15.4C32.7985 15.4033 28.705 16.6219 25.2001 18.9079C21.6952 21.1939 18.9297 24.4487 17.2398 28.2768C15.5499 32.1049 15.0083 36.3414 15.6808 40.4716C16.3534 44.6017 18.2111 48.4475 21.0283 51.5417C23.8454 54.6358 27.5007 56.8451 31.5498 57.901C35.5989 58.9568 39.8676 58.8138 43.8369 57.4893C47.8063 56.1648 51.3055 53.7158 53.9092 50.44C56.513 47.1643 58.1091 43.2027 58.5037 39.0368L72.8396 40.3948Z" stroke="white" stroke-width="2" stroke-linejoin="round" mask="url(#path-1-outside-1_1_1577)"/>
</svg>
