<svg width="48" height="48" viewBox="0 0 48 48" fill="none" xmlns="http://www.w3.org/2000/svg">
<path fill-rule="evenodd" clip-rule="evenodd" d="M24 3.05828C12.4342 3.05828 3.05828 12.4342 3.05828 24C3.05828 35.5658 12.4342 44.9418 24 44.9418C35.5658 44.9418 44.9418 35.5658 44.9418 24C44.9418 12.4342 35.5658 3.05828 24 3.05828ZM2.94177 24C2.94177 12.3699 12.3699 2.94177 24 2.94177C35.6302 2.94177 45.0583 12.3699 45.0583 24C45.0583 35.6302 35.6302 45.0583 24 45.0583C12.3699 45.0583 2.94177 35.6302 2.94177 24Z" fill="#D0D5DD"/>
<path fill-rule="evenodd" clip-rule="evenodd" d="M24 18.1169C20.7506 18.1169 18.1165 20.751 18.1165 24.0004C18.1165 27.2497 20.7506 29.8839 24 29.8839C27.2494 29.8839 29.8835 27.2497 29.8835 24.0004C29.8835 20.751 27.2494 18.1169 24 18.1169ZM18 24.0004C18 20.6867 20.6863 18.0004 24 18.0004C27.3137 18.0004 30 20.6867 30 24.0004C30 27.3141 27.3137 30.0004 24 30.0004C20.6863 30.0004 18 27.3141 18 24.0004Z" fill="#D0D5DD"/>
<path fill-rule="evenodd" clip-rule="evenodd" d="M23.9999 19.9802C21.7801 19.9802 19.9805 21.7797 19.9805 23.9996C19.9805 26.2194 21.7801 28.019 23.9999 28.019C26.2198 28.019 28.0194 26.2194 28.0194 23.9996C28.0194 21.7797 26.2198 19.9802 23.9999 19.9802ZM19.864 23.9996C19.864 21.7154 21.7157 19.8636 23.9999 19.8636C26.2841 19.8636 28.1359 21.7154 28.1359 23.9996C28.1359 26.2838 26.2841 28.1355 23.9999 28.1355C21.7157 28.1355 19.864 26.2838 19.864 23.9996Z" fill="#D0D5DD"/>
<path d="M23.9418 0H24.0583V48H23.9418V0Z" fill="#D0D5DD"/>
<path d="M48 23.9414L48 24.0579L-5.09259e-09 24.0579L0 23.9414L48 23.9414Z" fill="#D0D5DD"/>
<path d="M39.9029 0H40.0194V48H39.9029V0Z" fill="#D0D5DD"/>
<path d="M15.9611 0H16.0776V48H15.9611V0Z" fill="#D0D5DD"/>
<path d="M31.9222 0H32.0387V48H31.9222V0Z" fill="#D0D5DD"/>
<path d="M7.98047 0H8.09697V48H7.98047V0Z" fill="#D0D5DD"/>
<path d="M48 39.9023L48 40.0188L-5.09259e-09 40.0188L0 39.9023L48 39.9023Z" fill="#D0D5DD"/>
<path d="M48 15.9609L48 16.0774L-5.09259e-09 16.0774L0 15.9609L48 15.9609Z" fill="#D0D5DD"/>
<path d="M48 31.9219L48 32.0384L-5.09259e-09 32.0384L0 31.9219L48 31.9219Z" fill="#D0D5DD"/>
<path d="M48 7.98047L48 8.09697L-5.09259e-09 8.09697L0 7.98047L48 7.98047Z" fill="#D0D5DD"/>
</svg>
