<svg width="120" height="120" viewBox="0 0 120 120" fill="none" xmlns="http://www.w3.org/2000/svg">
<g clip-path="url(#clip0_4087_5537)">
<path d="M109.093 60.0001C109.093 73.5551 103.588 85.8391 94.7138 94.7137C85.8392 103.588 73.5537 109.092 59.9987 109.092C46.4436 109.092 34.1596 103.588 25.285 94.7137C16.4105 85.8391 10.9062 73.5536 10.9062 60.0001C10.9062 46.4465 16.4105 34.1595 25.285 25.2849C34.1596 16.4104 46.4451 10.9061 59.9987 10.9061C73.5522 10.9061 85.8392 16.4104 94.7138 25.2849C103.588 34.1595 109.093 46.445 109.093 60.0001Z" fill="#28A428"/>
<g style="mix-blend-mode:multiply" opacity="0.3">
<path d="M58.6798 58.8887L27.228 90.3419L14.7753 77.8892L6.11914 86.5454L27.228 107.654L67.3375 67.5449L58.6798 58.8887Z" fill="white"/>
<path d="M59.4313 58.1387L27.978 89.5904L15.5268 77.1392L6.86914 85.7954L27.978 106.904L68.0875 66.7949L59.4313 58.1387Z" fill="#F9FCF7"/>
<path d="M60.1807 57.3872L28.729 88.8404L16.2763 76.3878L7.62012 85.0439L28.729 106.153L68.8384 66.0434L60.1807 57.3872Z" fill="#F3F8EF"/>
<path d="M60.9322 56.6372L29.479 88.0889L17.0278 75.6378L8.37012 84.2939L29.479 105.403L69.5884 65.2934L60.9322 56.6372Z" fill="#EDF5E6"/>
<path d="M61.6827 55.8857L30.231 87.339L17.7783 74.8863L9.12207 83.5425L30.231 104.651L70.3404 64.5419L61.6827 55.8857Z" fill="#E7F2DE"/>
<path d="M62.4342 55.1357L30.9809 86.5875L18.5298 74.1363L9.87207 82.7925L30.9809 103.901L71.0904 63.7919L62.4342 55.1357Z" fill="#E1EFD6"/>
<path d="M63.1837 54.3843L31.7319 85.8375L19.2792 73.3848L10.623 82.041L31.7319 103.15L71.8414 63.0405L63.1837 54.3843Z" fill="#DAEBCE"/>
<path d="M63.9352 53.6344L32.4819 85.0861L20.0292 72.635L11.373 81.2911L32.4819 102.4L72.5914 62.2906L63.9352 53.6344Z" fill="#D4E8C5"/>
<path d="M64.6856 52.8829L33.2339 84.3362L20.7812 71.8835L12.125 80.5397L33.2339 101.649L73.3433 61.5391L64.6856 52.8829Z" fill="#CEE5BD"/>
<path d="M65.4371 52.1329L33.9839 83.5847L21.5312 71.1335L12.875 79.7897L33.9839 100.899L74.0933 60.7891L65.4371 52.1329Z" fill="#C8E1B5"/>
<path d="M66.1866 51.3815L34.7349 82.8347L22.2822 70.382L13.626 79.0382L34.7349 100.147L74.8443 60.0377L66.1866 51.3815Z" fill="#C2DEAD"/>
<path d="M66.9381 50.6315L35.4849 82.0832L23.0322 69.632L14.376 78.2882L35.4849 99.3971L75.5943 59.2877L66.9381 50.6315Z" fill="#BCDBA5"/>
<path d="M67.6885 49.88L36.2368 81.3332L23.7841 68.8806L15.1279 77.5367L36.2368 98.6456L76.3462 58.5362L67.6885 49.88Z" fill="#B6D89C"/>
<path d="M68.44 49.13L36.9868 80.5817L24.5341 68.1306L15.8779 76.7867L36.9868 97.8956L77.0962 57.7862L68.44 49.13Z" fill="#B0D494"/>
<path d="M69.1895 48.3785L37.7378 79.8318L25.2851 67.3791L16.6289 76.0353L37.7378 97.1442L77.8472 57.0347L69.1895 48.3785Z" fill="#AAD18C"/>
<path d="M69.941 47.6287L38.4878 79.0804L26.0351 66.6292L17.3789 75.2854L38.4878 96.3943L78.5972 56.2849L69.941 47.6287Z" fill="#A4CE84"/>
<path d="M70.6915 46.8772L39.2397 78.3304L26.7871 65.8778L18.1309 74.5339L39.2397 95.6428L79.3492 55.5349L70.6915 46.8772Z" fill="#9DCA7B"/>
<path d="M71.443 46.1272L39.9897 77.5789L27.5371 65.1277L18.8809 73.7839L39.9897 94.8928L80.0992 54.7834L71.443 46.1272Z" fill="#97C773"/>
<path d="M72.1925 45.3757L40.7407 76.829L28.288 64.3763L19.6318 73.0325L40.7407 94.1413L80.8501 54.0334L72.1925 45.3757Z" fill="#91C46B"/>
<path d="M72.944 44.6257L41.4907 76.0775L29.038 63.6263L20.3818 72.2825L41.4907 93.3914L81.6002 53.2819L72.944 44.6257Z" fill="#8BC063"/>
<path d="M73.6944 43.8743L42.2427 75.3275L29.79 62.8748L21.1338 71.531L42.2427 92.6399L82.3521 52.532L73.6944 43.8743Z" fill="#85BD5A"/>
<path d="M74.4459 43.1244L42.9927 74.5761L30.54 62.1249L21.8838 70.7811L42.9927 91.89L83.1021 51.7806L74.4459 43.1244Z" fill="#7FBA52"/>
<path d="M75.1954 42.3729L43.7436 73.8262L31.291 61.3735L22.6348 70.0297L43.7436 91.1385L83.8531 51.0306L75.1954 42.3729Z" fill="#79B74A"/>
<path d="M75.9469 41.6229L44.4936 73.0747L32.041 60.6235L23.3848 69.2797L44.4936 90.3885L84.6031 50.2791L75.9469 41.6229Z" fill="#73B342"/>
<path d="M76.6973 40.8715L45.2456 72.3247L32.7929 59.872L24.1367 68.5282L45.2456 89.6371L85.355 49.5292L76.6973 40.8715Z" fill="#6DB03A"/>
<path d="M77.4488 40.1215L45.9956 71.5732L33.5429 59.122L24.8867 67.7782L45.9956 88.8871L86.105 48.7776L77.4488 40.1215Z" fill="#67AD31"/>
<path d="M78.1983 39.37L46.7466 70.8232L34.2939 58.3705L25.6377 67.0267L46.7466 88.1356L86.856 48.0277L78.1983 39.37Z" fill="#60A929"/>
<path d="M78.9498 38.62L47.4966 70.0717L35.0439 57.6205L26.3877 66.2767L47.4966 87.3856L87.606 47.2762L78.9498 38.62Z" fill="#5AA621"/>
<path d="M79.7003 37.8685L48.2485 69.3218L35.7958 56.8691L27.1396 65.5253L48.2485 86.6341L88.358 46.5262L79.7003 37.8685Z" fill="#54A319"/>
<path d="M80.4508 37.1187L48.9975 68.5704L36.5449 56.1192L27.8887 64.7754L48.9975 85.8843L89.107 45.7748L80.4508 37.1187Z" fill="#4EA010"/>
<path d="M81.2012 36.3672L49.7495 67.8204L37.2968 55.3677L28.6406 64.0239L49.7495 85.1328L89.8589 45.0249L81.2012 36.3672Z" fill="#28A428"/>
<path d="M81.9527 35.6172L50.4995 67.0689L38.0468 54.6177L29.3906 63.2739L50.4995 84.3828L90.6089 44.2734L81.9527 35.6172Z" fill="#28A428"/>
</g>
<path d="M81.9518 35.6172L50.4985 67.0689L38.0458 54.6177L29.3896 63.2739L50.4985 84.3828L90.608 44.2734L81.9518 35.6172Z" fill="white"/>
<path d="M60.003 120H60C43.9737 120 28.9067 113.759 17.5744 102.426C16.9238 101.775 16.2883 101.109 15.6679 100.43C15.3095 100.039 15.3381 99.4302 15.7296 99.0733C16.1212 98.7149 16.7296 98.7435 17.0865 99.1351C17.6874 99.7932 18.3018 100.438 18.9328 101.067C29.9021 112.037 44.4872 118.078 60 118.078H60.003C70.1079 118.078 80.0668 115.437 88.8013 110.44C89.2621 110.177 89.8494 110.338 90.1129 110.797C90.3765 111.258 90.2169 111.845 89.756 112.109C80.7309 117.271 70.4422 120 60.003 120ZM104.299 99.989C104.073 99.989 103.847 99.9106 103.663 99.7495C103.266 99.3986 103.227 98.7917 103.578 98.3926C112.928 87.7832 118.078 74.1484 118.078 60V59.8268C118.078 59.2967 118.509 58.866 119.039 58.866C119.569 58.866 120 59.2967 120 59.8268V60C120 74.6167 114.679 88.7034 105.02 99.6637C104.831 99.879 104.566 99.989 104.299 99.989ZM0.960795 61.003C0.430701 61.003 0 60.6159 0 60.0858V60C0 45.4149 5.29943 31.3523 14.9209 20.4011C15.2718 20.0035 15.8787 19.9629 16.2778 20.3137C16.6769 20.6646 16.716 21.2715 16.3651 21.6706C7.05085 32.2695 1.92159 45.8832 1.92159 60C1.92159 60.5301 1.49089 61.003 0.960795 61.003ZM103.564 21.1134C103.304 21.1134 103.045 21.008 102.856 20.8017C102.273 20.1646 101.677 19.5412 101.067 18.9313C90.0979 7.96345 75.5128 1.92159 60 1.92159H59.997C49.8619 1.92159 39.879 4.57658 31.1249 9.60042C30.6656 9.86396 30.0768 9.70433 29.8133 9.24502C29.5497 8.7842 29.7078 8.19688 30.1687 7.93334C39.2119 2.74384 49.5276 0 59.997 0H60C76.0263 0 91.0933 6.24065 102.426 17.5744C103.055 18.2039 103.671 18.8485 104.272 19.505C104.63 19.8966 104.603 20.505 104.212 20.8619C104.026 21.0306 103.794 21.1149 103.563 21.1149L103.564 21.1134Z" fill="#28A428"/>
</g>
<defs>
<clipPath id="clip0_4087_5537">
<rect width="120" height="120" fill="white"/>
</clipPath>
</defs>
</svg>
